<svg width="28" height="28" viewBox="0 0 28 28" fill="none" xmlns="http://www.w3.org/2000/svg">
<path d="M26.5806 1.44263C25.9137 0.758124 24.9266 0.50311 24.0062 0.771537L2.54408 7.01268C1.57302 7.28247 0.884735 8.05691 0.699322 9.04072C0.509909 10.042 1.17152 11.313 2.03587 11.8445L8.74662 15.9691C9.4349 16.3919 10.3233 16.2859 10.8928 15.7113L18.5773 7.97906C18.9641 7.5764 19.6043 7.5764 19.9913 7.97906C20.3781 8.3683 20.3781 8.99912 19.9913 9.40178L12.2934 17.1355C11.7225 17.7085 11.6158 18.6011 12.0359 19.2936L16.1363 26.0717C16.6165 26.8769 17.4435 27.3333 18.3505 27.3333C18.4573 27.3333 18.5773 27.3333 18.6841 27.3199C19.7245 27.1857 20.5514 26.4744 20.8582 25.4677L27.2209 4.03304C27.501 3.12036 27.2475 2.12715 26.5806 1.44263Z" fill="white"/>
</svg>
