<svg width="20" height="20" viewBox="0 0 20 20" fill="none" xmlns="http://www.w3.org/2000/svg">
<path d="M15.9184 12.3201C15.6594 12.5711 15.5404 12.9341 15.5994 13.2901L16.4884 18.2101C16.5634 18.6271 16.3874 19.0491 16.0384 19.2901C15.6964 19.5401 15.2414 19.5701 14.8684 19.3701L10.4394 17.0601C10.2854 16.9781 10.1144 16.9341 9.9394 16.9291H9.6684C9.5744 16.9431 9.4824 16.9731 9.3984 17.0191L4.96839 19.3401C4.74939 19.4501 4.50139 19.4891 4.25839 19.4501C3.66639 19.3381 3.27139 18.7741 3.36839 18.1791L4.25839 13.2591C4.31739 12.9001 4.19839 12.5351 3.93939 12.2801L0.328387 8.7801C0.0263874 8.4871 -0.0786124 8.0471 0.0593876 7.65012C0.193388 7.25412 0.535388 6.96512 0.948388 6.90012L5.91839 6.17912C6.29639 6.14012 6.62839 5.91012 6.79839 5.57012L8.9884 1.08012C9.0404 0.980122 9.1074 0.888122 9.1884 0.810122L9.2784 0.740122C9.3254 0.688122 9.3794 0.645122 9.4394 0.610122L9.5484 0.570122L9.7184 0.500122H10.1394C10.5154 0.539122 10.8464 0.764122 11.0194 1.10012L13.2384 5.57012C13.3984 5.89712 13.7094 6.12412 14.0684 6.17912L19.0384 6.90012C19.4584 6.96012 19.8094 7.25012 19.9484 7.65012C20.0794 8.0511 19.9664 8.4911 19.6584 8.7801L15.9184 12.3201Z" fill="#FF5722"/>
</svg>
